<mxfile host="Electron" agent="Mozilla/5.0 (Windows NT 10.0; Win64; x64) AppleWebKit/537.36 (KHTML, like Gecko) draw.io/28.0.6 Chrome/138.0.7204.100 Electron/37.2.3 Safari/537.36" version="28.0.6">
  <diagram name="Page-1" id="gUqJHZRaJ4SWzodWHtCk">
    <mxGraphModel dx="1489" dy="894" grid="1" gridSize="10" guides="1" tooltips="1" connect="1" arrows="1" fold="1" page="1" pageScale="1" pageWidth="850" pageHeight="1100" math="0" shadow="0">
      <root>
        <mxCell id="0" />
        <mxCell id="1" parent="0" />
        <mxCell id="F7G1V9E1CgomZIyUK7jA-3" style="edgeStyle=orthogonalEdgeStyle;rounded=0;orthogonalLoop=1;jettySize=auto;html=1;exitX=0.98;exitY=0.51;exitDx=0;exitDy=0;exitPerimeter=0;entryX=0;entryY=0.5;entryDx=0;entryDy=0;" edge="1" parent="1" source="1l3sVz8xRKUN94Mr4Pdo-1" target="F7G1V9E1CgomZIyUK7jA-2">
          <mxGeometry relative="1" as="geometry" />
        </mxCell>
        <mxCell id="F7G1V9E1CgomZIyUK7jA-59" value="API Calls" style="edgeLabel;html=1;align=center;verticalAlign=middle;resizable=0;points=[];" vertex="1" connectable="0" parent="F7G1V9E1CgomZIyUK7jA-3">
          <mxGeometry x="-0.452" y="-2" relative="1" as="geometry">
            <mxPoint x="1" as="offset" />
          </mxGeometry>
        </mxCell>
        <mxCell id="1l3sVz8xRKUN94Mr4Pdo-1" value="Clients" style="points=[[0.35,0,0],[0.98,0.51,0],[1,0.71,0],[0.67,1,0],[0,0.795,0],[0,0.65,0]];verticalLabelPosition=bottom;sketch=0;html=1;verticalAlign=top;aspect=fixed;align=center;pointerEvents=1;shape=mxgraph.cisco19.user;fillColor=#005073;strokeColor=none;" parent="1" vertex="1">
          <mxGeometry x="60" y="215.75" width="50" height="50" as="geometry" />
        </mxCell>
        <mxCell id="1l3sVz8xRKUN94Mr4Pdo-2" value="User&lt;span style=&quot;background-color: transparent; color: light-dark(rgb(0, 0, 0), rgb(255, 255, 255));&quot;&gt;&amp;nbsp;Service&lt;/span&gt;" style="outlineConnect=0;dashed=0;verticalLabelPosition=bottom;verticalAlign=top;align=center;html=1;shape=mxgraph.aws3.ec2;fillColor=#F58534;gradientColor=none;" parent="1" vertex="1">
          <mxGeometry x="590" y="228.5" width="67.04" height="81.5" as="geometry" />
        </mxCell>
        <mxCell id="F7G1V9E1CgomZIyUK7jA-33" style="edgeStyle=orthogonalEdgeStyle;rounded=0;orthogonalLoop=1;jettySize=auto;html=1;exitX=1;exitY=0.5;exitDx=0;exitDy=0;exitPerimeter=0;" edge="1" parent="1" source="1l3sVz8xRKUN94Mr4Pdo-3" target="F7G1V9E1CgomZIyUK7jA-9">
          <mxGeometry relative="1" as="geometry" />
        </mxCell>
        <mxCell id="F7G1V9E1CgomZIyUK7jA-96" value="Read/Write" style="edgeLabel;html=1;align=center;verticalAlign=middle;resizable=0;points=[];" vertex="1" connectable="0" parent="F7G1V9E1CgomZIyUK7jA-33">
          <mxGeometry x="-0.2213" relative="1" as="geometry">
            <mxPoint as="offset" />
          </mxGeometry>
        </mxCell>
        <mxCell id="1l3sVz8xRKUN94Mr4Pdo-3" value="Connection Service" style="outlineConnect=0;dashed=0;verticalLabelPosition=bottom;verticalAlign=top;align=center;html=1;shape=mxgraph.aws3.ec2;fillColor=#F58534;gradientColor=none;" parent="1" vertex="1">
          <mxGeometry x="590" y="50" width="67.04" height="81.5" as="geometry" />
        </mxCell>
        <mxCell id="F7G1V9E1CgomZIyUK7jA-23" style="edgeStyle=orthogonalEdgeStyle;rounded=0;orthogonalLoop=1;jettySize=auto;html=1;exitX=0;exitY=0.5;exitDx=0;exitDy=0;exitPerimeter=0;entryX=1;entryY=0.5;entryDx=0;entryDy=0;" edge="1" parent="1" source="1l3sVz8xRKUN94Mr4Pdo-6" target="1l3sVz8xRKUN94Mr4Pdo-14">
          <mxGeometry relative="1" as="geometry" />
        </mxCell>
        <mxCell id="F7G1V9E1CgomZIyUK7jA-24" style="edgeStyle=orthogonalEdgeStyle;rounded=0;orthogonalLoop=1;jettySize=auto;html=1;exitX=0;exitY=0.5;exitDx=0;exitDy=0;exitPerimeter=0;" edge="1" parent="1" source="1l3sVz8xRKUN94Mr4Pdo-6" target="1l3sVz8xRKUN94Mr4Pdo-26">
          <mxGeometry relative="1" as="geometry">
            <Array as="points">
              <mxPoint x="370" y="1331" />
              <mxPoint x="370" y="1410" />
            </Array>
          </mxGeometry>
        </mxCell>
        <mxCell id="F7G1V9E1CgomZIyUK7jA-27" style="edgeStyle=orthogonalEdgeStyle;rounded=0;orthogonalLoop=1;jettySize=auto;html=1;exitX=1;exitY=0.5;exitDx=0;exitDy=0;exitPerimeter=0;" edge="1" parent="1" source="1l3sVz8xRKUN94Mr4Pdo-6" target="F7G1V9E1CgomZIyUK7jA-10">
          <mxGeometry relative="1" as="geometry" />
        </mxCell>
        <mxCell id="F7G1V9E1CgomZIyUK7jA-87" value="Consume from" style="edgeLabel;html=1;align=center;verticalAlign=middle;resizable=0;points=[];" vertex="1" connectable="0" parent="F7G1V9E1CgomZIyUK7jA-27">
          <mxGeometry x="-0.3612" relative="1" as="geometry">
            <mxPoint as="offset" />
          </mxGeometry>
        </mxCell>
        <mxCell id="1l3sVz8xRKUN94Mr4Pdo-6" value="Notification Service" style="outlineConnect=0;dashed=0;verticalLabelPosition=bottom;verticalAlign=top;align=center;html=1;shape=mxgraph.aws3.ec2;fillColor=#F58534;gradientColor=none;" parent="1" vertex="1">
          <mxGeometry x="440" y="1290" width="67.04" height="81.5" as="geometry" />
        </mxCell>
        <mxCell id="1l3sVz8xRKUN94Mr4Pdo-14" value="" style="fillColor=#ffffff;strokeColor=#dddddd;shadow=1;strokeWidth=1;rounded=1;absoluteArcSize=1;arcSize=2;" parent="1" vertex="1">
          <mxGeometry x="200" y="1250" width="100" height="60" as="geometry" />
        </mxCell>
        <mxCell id="1l3sVz8xRKUN94Mr4Pdo-15" value="FCM" style="sketch=0;dashed=0;connectable=0;html=1;fillColor=#5184F3;strokeColor=none;shape=mxgraph.gcp2.firebase;part=1;labelPosition=right;verticalLabelPosition=middle;align=left;verticalAlign=middle;spacingLeft=5;fontColor=#999999;fontSize=12;" parent="1l3sVz8xRKUN94Mr4Pdo-14" vertex="1">
          <mxGeometry width="32.4" height="45" relative="1" as="geometry">
            <mxPoint x="5" y="7" as="offset" />
          </mxGeometry>
        </mxCell>
        <mxCell id="1l3sVz8xRKUN94Mr4Pdo-26" value="APNS" style="dashed=0;outlineConnect=0;html=1;align=center;labelPosition=center;verticalLabelPosition=bottom;verticalAlign=top;shape=mxgraph.weblogos.apple;fillColor=#bac8d3;strokeColor=#23445d;" parent="1" vertex="1">
          <mxGeometry x="213.84999999999997" y="1371.5" width="62.400000000000006" height="76.2" as="geometry" />
        </mxCell>
        <mxCell id="F7G1V9E1CgomZIyUK7jA-16" style="edgeStyle=orthogonalEdgeStyle;rounded=0;orthogonalLoop=1;jettySize=auto;html=1;exitX=1;exitY=1;exitDx=0;exitDy=0;" edge="1" parent="1" source="F7G1V9E1CgomZIyUK7jA-2" target="F7G1V9E1CgomZIyUK7jA-5">
          <mxGeometry relative="1" as="geometry" />
        </mxCell>
        <mxCell id="F7G1V9E1CgomZIyUK7jA-2" value="API Gateway" style="sketch=0;html=1;verticalAlign=top;labelPosition=center;verticalLabelPosition=bottom;align=center;spacingTop=-6;fontSize=11;fontStyle=1;fontColor=#999999;shape=image;aspect=fixed;imageAspect=0;image=data:image/svg+xml,PHN2ZyB4bWxucz0iaHR0cDovL3d3dy53My5vcmcvMjAwMC9zdmciIGhlaWdodD0iMzY3LjgxODMyODg1NzQyMTkiIHZpZXdCb3g9IjcuMTA1NDI3MzU3NjAxMDAyZS0xNSAwIDM2Ni40MTAxODY3Njc1NzgxIDM2Ny44MTgzMjg4NTc0MjE5IiBwcmVzZXJ2ZUFzcGVjdFJhdGlvPSJ4TWlkWU1pZCBtZWV0IiB3aWR0aD0iMzY2LjQxMDE5Njc2NzU3OTEiIHZlcnNpb249IjEuMSIgaWQ9InN2Zzk4NyIgem9vbUFuZFBhbj0ibWFnbmlmeSI+JiN4YTsgIDxwYXRoIGQ9Im0gNDguMjUxOTYsMTExLjUzOTA2IGMgLTcuNjE4NjQsMmUtNCAtMTMuNzk0NzIsNi4xNzYyOCAtMTMuNzk0OTMsMTMuNzk0OTIgMi4xZS00LDcuNjE4NjQgNi4xNzYyOSwxMy43OTQ3MiAxMy43OTQ5MywxMy43OTQ5MiBoIDE0NS4xNDY5MiB2IC0yNy41ODk4NCB6IG0gMjM4LjYwODU5LDU3LjQ1MTE3IGggNjUuNzU0NjkgYyA3LjYxODY0LC0yLjFlLTQgMTMuNzk0NzEsLTYuMTc2MjggMTMuNzk0OTIsLTEzLjc5NDkyIC0yLjFlLTQsLTcuNjE4NjQgLTYuMTc2MjgsLTEzLjc5NDcxIC0xMy43OTQ5MiwtMTMuNzk0OTIgSCAyODQuODUwNiBaIE0gMTMuNzk0OTIsMTcwLjk3NDYxIEMgNi4xNzYyODAxLDE3MC45NzQ4MiAyLjEwMDkxOWUtNCwxNzcuMTUwODkgOS4xODk5MjFlLTgsMTg0Ljc2OTUzIC04LjY5OTA4MWUtNCwxOTIuMzg4OTMgNi4xNzU1MjAxLDE5OC41NjYxOSAxMy43OTQ5MiwxOTguNTY2NCBIIDE5My4zOTg4OCBWIDE3MC45NzQ2MSBaIE0gMjg0LjMwNzgsMjI3LjU2NjQgaCA2OC4zMDc0NCBjIDcuNjE4NjQsLTIuMWUtNCAxMy43OTQ3MSwtNi4xNzYyOCAxMy43OTQ5MiwtMTMuNzk0OTIgLTIuMWUtNCwtNy42MTg2NCAtNi4xNzYyOCwtMTMuNzk0NzEgLTEzLjc5NDkyLC0xMy43OTQ5MiBoIC02NS45MjE3OCB6IG0gLTIzNi4wNTU4NCwxLjY5NzI3IGMgLTcuNjE4NjQsMmUtNCAtMTMuNzk0NzIsNi4xNzYyOCAtMTMuNzk0OTMsMTMuNzk0OTIgMi4xZS00LDcuNjE4NjQgNi4xNzYyOSwxMy43OTQ3MiAxMy43OTQ5MywxMy43OTQ5MiBIIDE5My4zOTg4OCBWIDIyOS4yNjM2NyBaIE0gMTg5LjUyMTQ5LDAgYyAtMjQuNTc0MTEsMCAtNDkuMTY3MzcsMjAuMDU1MDcgLTU5LjQzNzUsNzUuMzczMDQgaCAzMC41ODAwNyBjIDQuNjE2MzMsLTI0LjE2MjA2IDE1LjM0ODk2LC00Ny41MjE0OCAyNy44NTM1MiwtNDcuNTIxNDggMTIuMTU4OCwwIDM5LjQ1ODk4LDU3LjQ1MDQ0IDM5LjQ1ODk4LDE2MC40MTQwNiAwLDY5LjkxNTEzIC0xOS41NzgwOSwxNTIuMTE1MjQgLTQxLjE3MTg3LDE1Mi4xMTUyMyAtMTUuMjY4ODEsMmUtNSAtMjEuMjE2NjgsLTI4LjMzMzU2IC0yNS40NDMzNiwtNDYuNzE4NzQgbCAtMzAuNDE0MDYsLTAuMDY4NCBjIDQuMjIwNzQsMjAuNTQwODcgMTYuOTA3NjgsNzQuMjI0NiA1Ny43MTI4OSw3NC4yMjQ2IDUzLjQzNjcyLDAgNjguOTEyMTEsLTExMS45OTMwNSA2OC45MTIxMSwtMTgwLjQ2Mjg5IEMgMjU3LjU3MjI3LDkzLjgwMDc2IDIzNi41ODM0LDAgMTg5LjUyMTQ5LDAgWiIgc3R5bGU9ImNvbG9yOiMwMDAwMDA7b3BhY2l0eToxO2ZpbGw6IzQyODVmNDtmaWxsLW9wYWNpdHk6MTtzdHJva2UtbGluZWNhcDpyb3VuZDstaW5rc2NhcGUtc3Ryb2tlOm5vbmUiLz4mI3hhOzwvc3ZnPg==;" vertex="1" parent="1">
          <mxGeometry x="220" y="207.62" width="66.25" height="66.25" as="geometry" />
        </mxCell>
        <mxCell id="F7G1V9E1CgomZIyUK7jA-34" style="edgeStyle=orthogonalEdgeStyle;rounded=0;orthogonalLoop=1;jettySize=auto;html=1;exitX=1;exitY=0.5;exitDx=0;exitDy=0;exitPerimeter=0;" edge="1" parent="1" source="F7G1V9E1CgomZIyUK7jA-4" target="F7G1V9E1CgomZIyUK7jA-8">
          <mxGeometry relative="1" as="geometry" />
        </mxCell>
        <mxCell id="F7G1V9E1CgomZIyUK7jA-80" value="Read/Write" style="edgeLabel;html=1;align=center;verticalAlign=middle;resizable=0;points=[];" vertex="1" connectable="0" parent="F7G1V9E1CgomZIyUK7jA-34">
          <mxGeometry x="-0.5228" y="3" relative="1" as="geometry">
            <mxPoint y="1" as="offset" />
          </mxGeometry>
        </mxCell>
        <mxCell id="F7G1V9E1CgomZIyUK7jA-4" value="&lt;span style=&quot;background-color: transparent; color: light-dark(rgb(0, 0, 0), rgb(255, 255, 255));&quot;&gt;Profile&amp;nbsp;&lt;/span&gt;&lt;span style=&quot;background-color: transparent; color: light-dark(rgb(0, 0, 0), rgb(255, 255, 255));&quot;&gt;Service&lt;/span&gt;" style="outlineConnect=0;dashed=0;verticalLabelPosition=bottom;verticalAlign=top;align=center;html=1;shape=mxgraph.aws3.ec2;fillColor=#F58534;gradientColor=none;" vertex="1" parent="1">
          <mxGeometry x="590" y="386.2" width="67.04" height="81.5" as="geometry" />
        </mxCell>
        <mxCell id="F7G1V9E1CgomZIyUK7jA-5" value="&lt;span style=&quot;background-color: transparent; color: light-dark(rgb(0, 0, 0), rgb(255, 255, 255));&quot;&gt;Feed&amp;nbsp;&lt;/span&gt;&lt;span style=&quot;background-color: transparent; color: light-dark(rgb(0, 0, 0), rgb(255, 255, 255));&quot;&gt;Service&lt;/span&gt;" style="outlineConnect=0;dashed=0;verticalLabelPosition=bottom;verticalAlign=top;align=center;html=1;shape=mxgraph.aws3.ec2;fillColor=#F58534;gradientColor=none;" vertex="1" parent="1">
          <mxGeometry x="253" y="720" width="67.04" height="81.5" as="geometry" />
        </mxCell>
        <mxCell id="F7G1V9E1CgomZIyUK7jA-8" value="Expresso DB" style="image;aspect=fixed;perimeter=ellipsePerimeter;html=1;align=center;shadow=0;dashed=0;spacingTop=3;image=img/lib/active_directory/database.svg;" vertex="1" parent="1">
          <mxGeometry x="529.47" y="520" width="108.11" height="80" as="geometry" />
        </mxCell>
        <mxCell id="F7G1V9E1CgomZIyUK7jA-9" value="&lt;div&gt;&lt;br&gt;&lt;/div&gt;&lt;div&gt;&lt;br&gt;&lt;/div&gt;&lt;div&gt;&lt;br&gt;&lt;/div&gt;&lt;div&gt;&lt;br&gt;&lt;/div&gt;&lt;div&gt;&lt;br&gt;&lt;/div&gt;&lt;div&gt;&lt;br&gt;&lt;/div&gt;&lt;div&gt;&lt;br&gt;&lt;/div&gt;&lt;div&gt;&lt;br&gt;&lt;/div&gt;&lt;div&gt;&lt;br&gt;&lt;/div&gt;Graph Database" style="points=[];aspect=fixed;html=1;align=center;shadow=0;dashed=0;fillColor=#FF6A00;strokeColor=none;shape=mxgraph.alibaba_cloud.gdb_graph_database;" vertex="1" parent="1">
          <mxGeometry x="876.82" y="40" width="120.22" height="103.8" as="geometry" />
        </mxCell>
        <mxCell id="F7G1V9E1CgomZIyUK7jA-10" value="&lt;div&gt;&lt;br&gt;&lt;/div&gt;&lt;div&gt;&lt;br&gt;&lt;/div&gt;&lt;div&gt;&lt;br&gt;&lt;/div&gt;&lt;div&gt;&lt;span style=&quot;background-color: transparent; color: light-dark(rgb(0, 0, 0), rgb(255, 255, 255));&quot;&gt;Kafka&lt;/span&gt;&lt;/div&gt;" style="points=[];aspect=fixed;html=1;align=center;shadow=0;dashed=0;fillColor=#FF6A00;strokeColor=none;shape=mxgraph.alibaba_cloud.kafka;" vertex="1" parent="1">
          <mxGeometry x="1330" y="728" width="103.95" height="77" as="geometry" />
        </mxCell>
        <mxCell id="F7G1V9E1CgomZIyUK7jA-11" value="Couchbase" style="image;aspect=fixed;html=1;points=[];align=center;fontSize=12;image=img/lib/azure2/general/Cache.svg;" vertex="1" parent="1">
          <mxGeometry x="410" y="790" width="84" height="84" as="geometry" />
        </mxCell>
        <mxCell id="F7G1V9E1CgomZIyUK7jA-12" value="&lt;div&gt;&lt;br&gt;&lt;/div&gt;&lt;div&gt;&lt;br&gt;&lt;/div&gt;&lt;div&gt;&lt;br&gt;&lt;/div&gt;&lt;div&gt;&lt;br&gt;&lt;/div&gt;&lt;div&gt;&lt;br&gt;&lt;/div&gt;&lt;div&gt;&lt;br&gt;&lt;/div&gt;&lt;div&gt;&lt;br&gt;&lt;/div&gt;&lt;div&gt;&lt;br&gt;&lt;/div&gt;Elasticserach" style="points=[];aspect=fixed;html=1;align=center;shadow=0;dashed=0;fillColor=#FF6A00;strokeColor=none;shape=mxgraph.alibaba_cloud.elasticsearch;" vertex="1" parent="1">
          <mxGeometry x="720" y="1544" width="80" height="87.32" as="geometry" />
        </mxCell>
        <mxCell id="F7G1V9E1CgomZIyUK7jA-13" style="edgeStyle=orthogonalEdgeStyle;rounded=0;orthogonalLoop=1;jettySize=auto;html=1;exitX=0.5;exitY=0;exitDx=0;exitDy=0;entryX=0;entryY=0.5;entryDx=0;entryDy=0;entryPerimeter=0;" edge="1" parent="1" source="F7G1V9E1CgomZIyUK7jA-2" target="1l3sVz8xRKUN94Mr4Pdo-3">
          <mxGeometry relative="1" as="geometry" />
        </mxCell>
        <mxCell id="F7G1V9E1CgomZIyUK7jA-60" value="Routes to" style="edgeLabel;html=1;align=center;verticalAlign=middle;resizable=0;points=[];" vertex="1" connectable="0" parent="F7G1V9E1CgomZIyUK7jA-13">
          <mxGeometry x="-0.1608" y="-2" relative="1" as="geometry">
            <mxPoint as="offset" />
          </mxGeometry>
        </mxCell>
        <mxCell id="F7G1V9E1CgomZIyUK7jA-14" style="edgeStyle=orthogonalEdgeStyle;rounded=0;orthogonalLoop=1;jettySize=auto;html=1;exitX=1;exitY=0.25;exitDx=0;exitDy=0;entryX=0;entryY=0.5;entryDx=0;entryDy=0;entryPerimeter=0;" edge="1" parent="1" source="F7G1V9E1CgomZIyUK7jA-2" target="1l3sVz8xRKUN94Mr4Pdo-2">
          <mxGeometry relative="1" as="geometry" />
        </mxCell>
        <mxCell id="F7G1V9E1CgomZIyUK7jA-61" value="Routes to" style="edgeLabel;html=1;align=center;verticalAlign=middle;resizable=0;points=[];" vertex="1" connectable="0" parent="F7G1V9E1CgomZIyUK7jA-14">
          <mxGeometry x="-0.465" y="2" relative="1" as="geometry">
            <mxPoint as="offset" />
          </mxGeometry>
        </mxCell>
        <mxCell id="F7G1V9E1CgomZIyUK7jA-15" style="edgeStyle=orthogonalEdgeStyle;rounded=0;orthogonalLoop=1;jettySize=auto;html=1;exitX=1;exitY=0.75;exitDx=0;exitDy=0;entryX=0;entryY=0.5;entryDx=0;entryDy=0;entryPerimeter=0;" edge="1" parent="1" source="F7G1V9E1CgomZIyUK7jA-2" target="F7G1V9E1CgomZIyUK7jA-4">
          <mxGeometry relative="1" as="geometry">
            <Array as="points">
              <mxPoint x="340" y="257" />
              <mxPoint x="340" y="427" />
            </Array>
          </mxGeometry>
        </mxCell>
        <mxCell id="F7G1V9E1CgomZIyUK7jA-62" value="Routes to" style="edgeLabel;html=1;align=center;verticalAlign=middle;resizable=0;points=[];" vertex="1" connectable="0" parent="F7G1V9E1CgomZIyUK7jA-15">
          <mxGeometry x="-0.4706" relative="1" as="geometry">
            <mxPoint as="offset" />
          </mxGeometry>
        </mxCell>
        <mxCell id="F7G1V9E1CgomZIyUK7jA-75" style="edgeStyle=orthogonalEdgeStyle;rounded=0;orthogonalLoop=1;jettySize=auto;html=1;exitX=1;exitY=0.5;exitDx=0;exitDy=0;exitPerimeter=0;" edge="1" parent="1" source="F7G1V9E1CgomZIyUK7jA-17" target="F7G1V9E1CgomZIyUK7jA-18">
          <mxGeometry relative="1" as="geometry" />
        </mxCell>
        <mxCell id="F7G1V9E1CgomZIyUK7jA-93" value="Uses" style="edgeLabel;html=1;align=center;verticalAlign=middle;resizable=0;points=[];" vertex="1" connectable="0" parent="F7G1V9E1CgomZIyUK7jA-75">
          <mxGeometry x="-0.3874" y="-4" relative="1" as="geometry">
            <mxPoint as="offset" />
          </mxGeometry>
        </mxCell>
        <mxCell id="F7G1V9E1CgomZIyUK7jA-81" style="edgeStyle=orthogonalEdgeStyle;rounded=0;orthogonalLoop=1;jettySize=auto;html=1;exitX=0.5;exitY=0;exitDx=0;exitDy=0;exitPerimeter=0;" edge="1" parent="1" source="F7G1V9E1CgomZIyUK7jA-17" target="F7G1V9E1CgomZIyUK7jA-8">
          <mxGeometry relative="1" as="geometry" />
        </mxCell>
        <mxCell id="F7G1V9E1CgomZIyUK7jA-17" value="&lt;span style=&quot;background-color: transparent; color: light-dark(rgb(0, 0, 0), rgb(255, 255, 255));&quot;&gt;Post&amp;nbsp;&lt;/span&gt;&lt;span style=&quot;background-color: transparent; color: light-dark(rgb(0, 0, 0), rgb(255, 255, 255));&quot;&gt;Service&lt;/span&gt;" style="outlineConnect=0;dashed=0;verticalLabelPosition=bottom;verticalAlign=top;align=center;html=1;shape=mxgraph.aws3.ec2;fillColor=#F58534;gradientColor=none;" vertex="1" parent="1">
          <mxGeometry x="550" y="638.5" width="67.04" height="81.5" as="geometry" />
        </mxCell>
        <mxCell id="F7G1V9E1CgomZIyUK7jA-18" value="&lt;span style=&quot;background-color: transparent; color: light-dark(rgb(0, 0, 0), rgb(255, 255, 255));&quot;&gt;Media&amp;nbsp;&lt;/span&gt;&lt;span style=&quot;background-color: transparent; color: light-dark(rgb(0, 0, 0), rgb(255, 255, 255));&quot;&gt;Service&lt;/span&gt;" style="outlineConnect=0;dashed=0;verticalLabelPosition=bottom;verticalAlign=top;align=center;html=1;shape=mxgraph.aws3.ec2;fillColor=#F58534;gradientColor=none;" vertex="1" parent="1">
          <mxGeometry x="860" y="495.75" width="67.04" height="81.5" as="geometry" />
        </mxCell>
        <mxCell id="F7G1V9E1CgomZIyUK7jA-50" style="edgeStyle=orthogonalEdgeStyle;rounded=0;orthogonalLoop=1;jettySize=auto;html=1;exitX=0.5;exitY=0;exitDx=0;exitDy=0;exitPerimeter=0;" edge="1" parent="1" source="F7G1V9E1CgomZIyUK7jA-19">
          <mxGeometry relative="1" as="geometry">
            <mxPoint x="1384.571533203125" y="804.2857142857143" as="targetPoint" />
            <Array as="points">
              <mxPoint x="464" y="1510" />
              <mxPoint x="1385" y="1510" />
            </Array>
          </mxGeometry>
        </mxCell>
        <mxCell id="F7G1V9E1CgomZIyUK7jA-88" value="Consume from" style="edgeLabel;html=1;align=center;verticalAlign=middle;resizable=0;points=[];" vertex="1" connectable="0" parent="F7G1V9E1CgomZIyUK7jA-50">
          <mxGeometry x="-0.3402" relative="1" as="geometry">
            <mxPoint x="-1" as="offset" />
          </mxGeometry>
        </mxCell>
        <mxCell id="F7G1V9E1CgomZIyUK7jA-19" value="&lt;span style=&quot;background-color: transparent; color: light-dark(rgb(0, 0, 0), rgb(255, 255, 255));&quot;&gt;Search&amp;nbsp;&lt;/span&gt;&lt;span style=&quot;background-color: transparent; color: light-dark(rgb(0, 0, 0), rgb(255, 255, 255));&quot;&gt;Service&lt;/span&gt;" style="outlineConnect=0;dashed=0;verticalLabelPosition=bottom;verticalAlign=top;align=center;html=1;shape=mxgraph.aws3.ec2;fillColor=#F58534;gradientColor=none;" vertex="1" parent="1">
          <mxGeometry x="430" y="1540" width="67.04" height="81.5" as="geometry" />
        </mxCell>
        <mxCell id="F7G1V9E1CgomZIyUK7jA-20" value="Object Store" style="outlineConnect=0;dashed=0;verticalLabelPosition=bottom;verticalAlign=top;align=center;html=1;shape=mxgraph.aws3.s3;fillColor=#E05243;gradientColor=none;" vertex="1" parent="1">
          <mxGeometry x="1070" y="490" width="76.5" height="93" as="geometry" />
        </mxCell>
        <mxCell id="F7G1V9E1CgomZIyUK7jA-25" style="edgeStyle=orthogonalEdgeStyle;rounded=0;orthogonalLoop=1;jettySize=auto;html=1;exitX=1;exitY=0.5;exitDx=0;exitDy=0;exitPerimeter=0;entryX=0.027;entryY=0.435;entryDx=0;entryDy=0;entryPerimeter=0;" edge="1" parent="1" source="F7G1V9E1CgomZIyUK7jA-19" target="F7G1V9E1CgomZIyUK7jA-12">
          <mxGeometry relative="1" as="geometry" />
        </mxCell>
        <mxCell id="F7G1V9E1CgomZIyUK7jA-83" value="Read/Write" style="edgeLabel;html=1;align=center;verticalAlign=middle;resizable=0;points=[];" vertex="1" connectable="0" parent="F7G1V9E1CgomZIyUK7jA-25">
          <mxGeometry x="0.073" y="-1" relative="1" as="geometry">
            <mxPoint as="offset" />
          </mxGeometry>
        </mxCell>
        <mxCell id="F7G1V9E1CgomZIyUK7jA-26" style="edgeStyle=orthogonalEdgeStyle;rounded=0;orthogonalLoop=1;jettySize=auto;html=1;exitX=1;exitY=0.5;exitDx=0;exitDy=0;exitPerimeter=0;entryX=0;entryY=0.5;entryDx=0;entryDy=0;entryPerimeter=0;" edge="1" parent="1" source="F7G1V9E1CgomZIyUK7jA-18" target="F7G1V9E1CgomZIyUK7jA-20">
          <mxGeometry relative="1" as="geometry" />
        </mxCell>
        <mxCell id="F7G1V9E1CgomZIyUK7jA-84" value="Store/Retrieves" style="edgeLabel;html=1;align=center;verticalAlign=middle;resizable=0;points=[];" vertex="1" connectable="0" parent="F7G1V9E1CgomZIyUK7jA-26">
          <mxGeometry x="-0.357" y="-3" relative="1" as="geometry">
            <mxPoint as="offset" />
          </mxGeometry>
        </mxCell>
        <mxCell id="F7G1V9E1CgomZIyUK7jA-43" style="edgeStyle=orthogonalEdgeStyle;rounded=0;orthogonalLoop=1;jettySize=auto;html=1;exitX=0;exitY=0.21;exitDx=0;exitDy=0;exitPerimeter=0;" edge="1" parent="1" source="F7G1V9E1CgomZIyUK7jA-30" target="F7G1V9E1CgomZIyUK7jA-41">
          <mxGeometry relative="1" as="geometry" />
        </mxCell>
        <mxCell id="F7G1V9E1CgomZIyUK7jA-30" value="Company Service" style="outlineConnect=0;dashed=0;verticalLabelPosition=bottom;verticalAlign=top;align=center;html=1;shape=mxgraph.aws3.ec2;fillColor=#F58534;gradientColor=none;" vertex="1" parent="1">
          <mxGeometry x="550" y="1095.5" width="67.04" height="81.5" as="geometry" />
        </mxCell>
        <mxCell id="F7G1V9E1CgomZIyUK7jA-42" style="edgeStyle=orthogonalEdgeStyle;rounded=0;orthogonalLoop=1;jettySize=auto;html=1;exitX=0;exitY=0.79;exitDx=0;exitDy=0;exitPerimeter=0;" edge="1" parent="1" source="F7G1V9E1CgomZIyUK7jA-31" target="F7G1V9E1CgomZIyUK7jA-41">
          <mxGeometry relative="1" as="geometry" />
        </mxCell>
        <mxCell id="F7G1V9E1CgomZIyUK7jA-31" value="Job Service" style="outlineConnect=0;dashed=0;verticalLabelPosition=bottom;verticalAlign=top;align=center;html=1;shape=mxgraph.aws3.ec2;fillColor=#F58534;gradientColor=none;" vertex="1" parent="1">
          <mxGeometry x="550" y="927" width="67.04" height="81.5" as="geometry" />
        </mxCell>
        <mxCell id="F7G1V9E1CgomZIyUK7jA-32" value="" style="image;aspect=fixed;html=1;points=[];align=center;fontSize=12;image=img/lib/azure2/databases/Azure_Database_MySQL_Server.svg;" vertex="1" parent="1">
          <mxGeometry x="740" y="143.8" width="69.38" height="92.5" as="geometry" />
        </mxCell>
        <mxCell id="F7G1V9E1CgomZIyUK7jA-36" style="edgeStyle=orthogonalEdgeStyle;rounded=0;orthogonalLoop=1;jettySize=auto;html=1;exitX=0.25;exitY=1;exitDx=0;exitDy=0;entryX=0;entryY=0.5;entryDx=0;entryDy=0;entryPerimeter=0;" edge="1" parent="1" source="F7G1V9E1CgomZIyUK7jA-2" target="F7G1V9E1CgomZIyUK7jA-31">
          <mxGeometry relative="1" as="geometry" />
        </mxCell>
        <mxCell id="F7G1V9E1CgomZIyUK7jA-37" style="edgeStyle=orthogonalEdgeStyle;rounded=0;orthogonalLoop=1;jettySize=auto;html=1;exitX=0.25;exitY=1;exitDx=0;exitDy=0;entryX=0;entryY=0.5;entryDx=0;entryDy=0;entryPerimeter=0;" edge="1" parent="1" source="F7G1V9E1CgomZIyUK7jA-2" target="F7G1V9E1CgomZIyUK7jA-30">
          <mxGeometry relative="1" as="geometry" />
        </mxCell>
        <mxCell id="F7G1V9E1CgomZIyUK7jA-65" value="Routes to" style="edgeLabel;html=1;align=center;verticalAlign=middle;resizable=0;points=[];" vertex="1" connectable="0" parent="F7G1V9E1CgomZIyUK7jA-37">
          <mxGeometry x="-0.8141" y="-3" relative="1" as="geometry">
            <mxPoint y="-1" as="offset" />
          </mxGeometry>
        </mxCell>
        <mxCell id="F7G1V9E1CgomZIyUK7jA-39" style="edgeStyle=orthogonalEdgeStyle;rounded=0;orthogonalLoop=1;jettySize=auto;html=1;exitX=0.75;exitY=1;exitDx=0;exitDy=0;entryX=0;entryY=0.5;entryDx=0;entryDy=0;entryPerimeter=0;" edge="1" parent="1" source="F7G1V9E1CgomZIyUK7jA-2" target="F7G1V9E1CgomZIyUK7jA-17">
          <mxGeometry relative="1" as="geometry" />
        </mxCell>
        <mxCell id="F7G1V9E1CgomZIyUK7jA-64" value="Routes to" style="edgeLabel;html=1;align=center;verticalAlign=middle;resizable=0;points=[];" vertex="1" connectable="0" parent="F7G1V9E1CgomZIyUK7jA-39">
          <mxGeometry x="-0.4228" relative="1" as="geometry">
            <mxPoint y="1" as="offset" />
          </mxGeometry>
        </mxCell>
        <mxCell id="F7G1V9E1CgomZIyUK7jA-40" style="edgeStyle=orthogonalEdgeStyle;rounded=0;orthogonalLoop=1;jettySize=auto;html=1;exitX=0.5;exitY=0;exitDx=0;exitDy=0;exitPerimeter=0;entryX=-0.023;entryY=0.549;entryDx=0;entryDy=0;entryPerimeter=0;" edge="1" parent="1" source="1l3sVz8xRKUN94Mr4Pdo-2" target="F7G1V9E1CgomZIyUK7jA-32">
          <mxGeometry relative="1" as="geometry" />
        </mxCell>
        <mxCell id="F7G1V9E1CgomZIyUK7jA-79" value="Read/Write" style="edgeLabel;html=1;align=center;verticalAlign=middle;resizable=0;points=[];" vertex="1" connectable="0" parent="F7G1V9E1CgomZIyUK7jA-40">
          <mxGeometry x="-0.1866" y="-3" relative="1" as="geometry">
            <mxPoint x="1" as="offset" />
          </mxGeometry>
        </mxCell>
        <mxCell id="F7G1V9E1CgomZIyUK7jA-41" value="" style="image;aspect=fixed;html=1;points=[];align=center;fontSize=12;image=img/lib/azure2/databases/Azure_Database_MySQL_Server.svg;" vertex="1" parent="1">
          <mxGeometry x="410" y="1003" width="69.38" height="92.5" as="geometry" />
        </mxCell>
        <mxCell id="F7G1V9E1CgomZIyUK7jA-46" style="edgeStyle=orthogonalEdgeStyle;rounded=0;orthogonalLoop=1;jettySize=auto;html=1;exitX=1;exitY=0.79;exitDx=0;exitDy=0;exitPerimeter=0;entryX=-0.009;entryY=0.503;entryDx=0;entryDy=0;entryPerimeter=0;" edge="1" parent="1" source="F7G1V9E1CgomZIyUK7jA-5" target="F7G1V9E1CgomZIyUK7jA-11">
          <mxGeometry relative="1" as="geometry" />
        </mxCell>
        <mxCell id="F7G1V9E1CgomZIyUK7jA-78" value="Uses" style="edgeLabel;html=1;align=center;verticalAlign=middle;resizable=0;points=[];" vertex="1" connectable="0" parent="F7G1V9E1CgomZIyUK7jA-46">
          <mxGeometry x="-0.025" y="1" relative="1" as="geometry">
            <mxPoint as="offset" />
          </mxGeometry>
        </mxCell>
        <mxCell id="F7G1V9E1CgomZIyUK7jA-47" style="edgeStyle=orthogonalEdgeStyle;rounded=0;orthogonalLoop=1;jettySize=auto;html=1;exitX=0;exitY=1;exitDx=0;exitDy=0;entryX=0;entryY=0.5;entryDx=0;entryDy=0;entryPerimeter=0;" edge="1" parent="1" source="F7G1V9E1CgomZIyUK7jA-2" target="F7G1V9E1CgomZIyUK7jA-19">
          <mxGeometry relative="1" as="geometry">
            <Array as="points">
              <mxPoint x="150" y="274" />
              <mxPoint x="150" y="1581" />
            </Array>
          </mxGeometry>
        </mxCell>
        <mxCell id="F7G1V9E1CgomZIyUK7jA-66" value="Routes to" style="edgeLabel;html=1;align=center;verticalAlign=middle;resizable=0;points=[];" vertex="1" connectable="0" parent="F7G1V9E1CgomZIyUK7jA-47">
          <mxGeometry x="-0.7474" y="1" relative="1" as="geometry">
            <mxPoint y="1" as="offset" />
          </mxGeometry>
        </mxCell>
        <mxCell id="F7G1V9E1CgomZIyUK7jA-51" style="edgeStyle=orthogonalEdgeStyle;rounded=0;orthogonalLoop=1;jettySize=auto;html=1;exitX=1;exitY=0.5;exitDx=0;exitDy=0;exitPerimeter=0;entryX=0.499;entryY=0.879;entryDx=0;entryDy=0;entryPerimeter=0;" edge="1" parent="1" source="F7G1V9E1CgomZIyUK7jA-30" target="F7G1V9E1CgomZIyUK7jA-10">
          <mxGeometry relative="1" as="geometry" />
        </mxCell>
        <mxCell id="F7G1V9E1CgomZIyUK7jA-89" value="Push events to" style="edgeLabel;html=1;align=center;verticalAlign=middle;resizable=0;points=[];" vertex="1" connectable="0" parent="F7G1V9E1CgomZIyUK7jA-51">
          <mxGeometry x="-0.3844" y="3" relative="1" as="geometry">
            <mxPoint as="offset" />
          </mxGeometry>
        </mxCell>
        <mxCell id="F7G1V9E1CgomZIyUK7jA-52" style="edgeStyle=orthogonalEdgeStyle;rounded=0;orthogonalLoop=1;jettySize=auto;html=1;exitX=1;exitY=0.5;exitDx=0;exitDy=0;exitPerimeter=0;entryX=0.521;entryY=0.968;entryDx=0;entryDy=0;entryPerimeter=0;" edge="1" parent="1" source="F7G1V9E1CgomZIyUK7jA-31" target="F7G1V9E1CgomZIyUK7jA-10">
          <mxGeometry relative="1" as="geometry" />
        </mxCell>
        <mxCell id="F7G1V9E1CgomZIyUK7jA-90" value="Push events to" style="edgeLabel;html=1;align=center;verticalAlign=middle;resizable=0;points=[];" vertex="1" connectable="0" parent="F7G1V9E1CgomZIyUK7jA-52">
          <mxGeometry x="-0.2273" relative="1" as="geometry">
            <mxPoint as="offset" />
          </mxGeometry>
        </mxCell>
        <mxCell id="F7G1V9E1CgomZIyUK7jA-54" style="edgeStyle=orthogonalEdgeStyle;rounded=0;orthogonalLoop=1;jettySize=auto;html=1;exitX=0.5;exitY=1;exitDx=0;exitDy=0;exitPerimeter=0;entryX=0.521;entryY=1.028;entryDx=0;entryDy=0;entryPerimeter=0;" edge="1" parent="1" source="F7G1V9E1CgomZIyUK7jA-5" target="F7G1V9E1CgomZIyUK7jA-10">
          <mxGeometry relative="1" as="geometry">
            <Array as="points">
              <mxPoint x="287" y="920" />
              <mxPoint x="1384" y="920" />
            </Array>
          </mxGeometry>
        </mxCell>
        <mxCell id="F7G1V9E1CgomZIyUK7jA-91" value="Push events to" style="edgeLabel;html=1;align=center;verticalAlign=middle;resizable=0;points=[];" vertex="1" connectable="0" parent="F7G1V9E1CgomZIyUK7jA-54">
          <mxGeometry x="0.1921" y="1" relative="1" as="geometry">
            <mxPoint x="1" as="offset" />
          </mxGeometry>
        </mxCell>
        <mxCell id="F7G1V9E1CgomZIyUK7jA-55" style="edgeStyle=orthogonalEdgeStyle;rounded=0;orthogonalLoop=1;jettySize=auto;html=1;exitX=1;exitY=0.79;exitDx=0;exitDy=0;exitPerimeter=0;entryX=0.444;entryY=0.152;entryDx=0;entryDy=0;entryPerimeter=0;" edge="1" parent="1" source="F7G1V9E1CgomZIyUK7jA-17" target="F7G1V9E1CgomZIyUK7jA-10">
          <mxGeometry relative="1" as="geometry" />
        </mxCell>
        <mxCell id="F7G1V9E1CgomZIyUK7jA-92" value="Push events to" style="edgeLabel;html=1;align=center;verticalAlign=middle;resizable=0;points=[];" vertex="1" connectable="0" parent="F7G1V9E1CgomZIyUK7jA-55">
          <mxGeometry x="-0.1594" y="1" relative="1" as="geometry">
            <mxPoint as="offset" />
          </mxGeometry>
        </mxCell>
        <mxCell id="F7G1V9E1CgomZIyUK7jA-56" style="edgeStyle=orthogonalEdgeStyle;rounded=0;orthogonalLoop=1;jettySize=auto;html=1;exitX=1;exitY=0.21;exitDx=0;exitDy=0;exitPerimeter=0;entryX=0.444;entryY=0.197;entryDx=0;entryDy=0;entryPerimeter=0;" edge="1" parent="1" source="F7G1V9E1CgomZIyUK7jA-4" target="F7G1V9E1CgomZIyUK7jA-10">
          <mxGeometry relative="1" as="geometry" />
        </mxCell>
        <mxCell id="F7G1V9E1CgomZIyUK7jA-94" value="Push events to" style="edgeLabel;html=1;align=center;verticalAlign=middle;resizable=0;points=[];" vertex="1" connectable="0" parent="F7G1V9E1CgomZIyUK7jA-56">
          <mxGeometry x="-0.4276" y="-2" relative="1" as="geometry">
            <mxPoint as="offset" />
          </mxGeometry>
        </mxCell>
        <mxCell id="F7G1V9E1CgomZIyUK7jA-57" style="edgeStyle=orthogonalEdgeStyle;rounded=0;orthogonalLoop=1;jettySize=auto;html=1;exitX=1;exitY=0.5;exitDx=0;exitDy=0;exitPerimeter=0;entryX=0.499;entryY=0.212;entryDx=0;entryDy=0;entryPerimeter=0;" edge="1" parent="1" source="1l3sVz8xRKUN94Mr4Pdo-2" target="F7G1V9E1CgomZIyUK7jA-10">
          <mxGeometry relative="1" as="geometry" />
        </mxCell>
        <mxCell id="F7G1V9E1CgomZIyUK7jA-95" value="Push events to" style="edgeLabel;html=1;align=center;verticalAlign=middle;resizable=0;points=[];" vertex="1" connectable="0" parent="F7G1V9E1CgomZIyUK7jA-57">
          <mxGeometry x="-0.4781" y="-2" relative="1" as="geometry">
            <mxPoint as="offset" />
          </mxGeometry>
        </mxCell>
        <mxCell id="F7G1V9E1CgomZIyUK7jA-58" style="edgeStyle=orthogonalEdgeStyle;rounded=0;orthogonalLoop=1;jettySize=auto;html=1;exitX=0.5;exitY=0;exitDx=0;exitDy=0;exitPerimeter=0;entryX=0.466;entryY=0.226;entryDx=0;entryDy=0;entryPerimeter=0;" edge="1" parent="1" source="1l3sVz8xRKUN94Mr4Pdo-3" target="F7G1V9E1CgomZIyUK7jA-10">
          <mxGeometry relative="1" as="geometry" />
        </mxCell>
        <mxCell id="F7G1V9E1CgomZIyUK7jA-97" value="Push events to" style="edgeLabel;html=1;align=center;verticalAlign=middle;resizable=0;points=[];" vertex="1" connectable="0" parent="F7G1V9E1CgomZIyUK7jA-58">
          <mxGeometry x="-0.3125" relative="1" as="geometry">
            <mxPoint x="-1" as="offset" />
          </mxGeometry>
        </mxCell>
        <mxCell id="F7G1V9E1CgomZIyUK7jA-70" style="edgeStyle=orthogonalEdgeStyle;rounded=0;orthogonalLoop=1;jettySize=auto;html=1;exitX=1;exitY=0.21;exitDx=0;exitDy=0;exitPerimeter=0;entryX=0;entryY=0.79;entryDx=0;entryDy=0;entryPerimeter=0;" edge="1" parent="1" source="F7G1V9E1CgomZIyUK7jA-5" target="F7G1V9E1CgomZIyUK7jA-4">
          <mxGeometry relative="1" as="geometry">
            <Array as="points">
              <mxPoint x="320" y="451" />
            </Array>
          </mxGeometry>
        </mxCell>
        <mxCell id="F7G1V9E1CgomZIyUK7jA-71" style="edgeStyle=orthogonalEdgeStyle;rounded=0;orthogonalLoop=1;jettySize=auto;html=1;exitX=1;exitY=0.21;exitDx=0;exitDy=0;exitPerimeter=0;entryX=0;entryY=0.79;entryDx=0;entryDy=0;entryPerimeter=0;" edge="1" parent="1" source="F7G1V9E1CgomZIyUK7jA-5" target="1l3sVz8xRKUN94Mr4Pdo-3">
          <mxGeometry relative="1" as="geometry">
            <Array as="points">
              <mxPoint x="320" y="114" />
            </Array>
          </mxGeometry>
        </mxCell>
        <mxCell id="F7G1V9E1CgomZIyUK7jA-76" value="Read from" style="edgeLabel;html=1;align=center;verticalAlign=middle;resizable=0;points=[];" vertex="1" connectable="0" parent="F7G1V9E1CgomZIyUK7jA-71">
          <mxGeometry x="-0.6371" relative="1" as="geometry">
            <mxPoint y="-1" as="offset" />
          </mxGeometry>
        </mxCell>
        <mxCell id="F7G1V9E1CgomZIyUK7jA-72" style="edgeStyle=orthogonalEdgeStyle;rounded=0;orthogonalLoop=1;jettySize=auto;html=1;exitX=1;exitY=0.5;exitDx=0;exitDy=0;exitPerimeter=0;entryX=0.5;entryY=1;entryDx=0;entryDy=0;entryPerimeter=0;" edge="1" parent="1" source="F7G1V9E1CgomZIyUK7jA-5" target="F7G1V9E1CgomZIyUK7jA-17">
          <mxGeometry relative="1" as="geometry" />
        </mxCell>
        <mxCell id="F7G1V9E1CgomZIyUK7jA-77" value="Read from" style="edgeLabel;html=1;align=center;verticalAlign=middle;resizable=0;points=[];" vertex="1" connectable="0" parent="F7G1V9E1CgomZIyUK7jA-72">
          <mxGeometry x="-0.3986" y="3" relative="1" as="geometry">
            <mxPoint as="offset" />
          </mxGeometry>
        </mxCell>
        <mxCell id="F7G1V9E1CgomZIyUK7jA-73" style="edgeStyle=orthogonalEdgeStyle;rounded=0;orthogonalLoop=1;jettySize=auto;html=1;exitX=0.75;exitY=1;exitDx=0;exitDy=0;entryX=0.5;entryY=1;entryDx=0;entryDy=0;entryPerimeter=0;" edge="1" parent="1" source="F7G1V9E1CgomZIyUK7jA-2" target="F7G1V9E1CgomZIyUK7jA-18">
          <mxGeometry relative="1" as="geometry">
            <Array as="points">
              <mxPoint x="270" y="630" />
              <mxPoint x="894" y="630" />
            </Array>
          </mxGeometry>
        </mxCell>
        <mxCell id="F7G1V9E1CgomZIyUK7jA-74" value="Routes to" style="edgeLabel;html=1;align=center;verticalAlign=middle;resizable=0;points=[];" vertex="1" connectable="0" parent="F7G1V9E1CgomZIyUK7jA-73">
          <mxGeometry x="-0.8481" y="-1" relative="1" as="geometry">
            <mxPoint as="offset" />
          </mxGeometry>
        </mxCell>
        <mxCell id="F7G1V9E1CgomZIyUK7jA-82" value="Read/Write" style="text;html=1;align=center;verticalAlign=middle;resizable=0;points=[];autosize=1;strokeColor=none;fillColor=none;" vertex="1" parent="1">
          <mxGeometry x="510" y="1034.25" width="80" height="30" as="geometry" />
        </mxCell>
      </root>
    </mxGraphModel>
  </diagram>
</mxfile>
